<mxfile host="app.diagrams.net" modified="2023-08-08T02:41:00.644Z" agent="Mozilla/5.0 (Windows NT 10.0; Win64; x64) AppleWebKit/537.36 (KHTML, like Gecko) Chrome/115.0.0.0 Safari/537.36" etag="A_fpquv6tHa6DQ8eHe9s" version="21.6.6" type="github">
  <diagram name="Page-1" id="8NP3AdUZ_DkiwLjYIJoB">
    <mxGraphModel dx="1050" dy="534" grid="1" gridSize="10" guides="1" tooltips="1" connect="1" arrows="1" fold="1" page="1" pageScale="1" pageWidth="850" pageHeight="1100" math="0" shadow="0">
      <root>
        <mxCell id="0" />
        <mxCell id="1" parent="0" />
        <mxCell id="hWaTpJQsUfpoI2xFxVlj-1" value="&lt;b&gt;Sistema de Reservas para Biblioteca&amp;nbsp;&lt;/b&gt;" style="ellipse;whiteSpace=wrap;html=1;fillColor=#d5e8d4;strokeColor=#82b366;" vertex="1" parent="1">
          <mxGeometry x="160" y="20" width="120" height="80" as="geometry" />
        </mxCell>
        <mxCell id="hWaTpJQsUfpoI2xFxVlj-2" value="Libros" style="ellipse;whiteSpace=wrap;html=1;fillColor=#d5e8d4;strokeColor=#82b366;" vertex="1" parent="1">
          <mxGeometry x="60" y="130" width="120" height="80" as="geometry" />
        </mxCell>
        <mxCell id="hWaTpJQsUfpoI2xFxVlj-3" value="Clientes" style="ellipse;whiteSpace=wrap;html=1;fillColor=#d5e8d4;strokeColor=#82b366;" vertex="1" parent="1">
          <mxGeometry x="200" y="130" width="120" height="80" as="geometry" />
        </mxCell>
        <mxCell id="hWaTpJQsUfpoI2xFxVlj-4" value="Usuarios" style="ellipse;whiteSpace=wrap;html=1;" vertex="1" parent="1">
          <mxGeometry x="340" y="130" width="120" height="80" as="geometry" />
        </mxCell>
        <mxCell id="hWaTpJQsUfpoI2xFxVlj-5" value="Notificaciones" style="ellipse;whiteSpace=wrap;html=1;" vertex="1" parent="1">
          <mxGeometry x="480" y="130" width="120" height="80" as="geometry" />
        </mxCell>
        <mxCell id="hWaTpJQsUfpoI2xFxVlj-6" value="Préstamos" style="ellipse;whiteSpace=wrap;html=1;fillColor=#d5e8d4;strokeColor=#82b366;" vertex="1" parent="1">
          <mxGeometry x="620" y="130" width="120" height="80" as="geometry" />
        </mxCell>
        <mxCell id="hWaTpJQsUfpoI2xFxVlj-7" value="Inventario" style="ellipse;whiteSpace=wrap;html=1;fillColor=#d5e8d4;strokeColor=#82b366;" vertex="1" parent="1">
          <mxGeometry x="60" y="230" width="120" height="80" as="geometry" />
        </mxCell>
        <mxCell id="hWaTpJQsUfpoI2xFxVlj-8" value="Pedidos a proveedor" style="ellipse;whiteSpace=wrap;html=1;" vertex="1" parent="1">
          <mxGeometry x="200" y="230" width="120" height="80" as="geometry" />
        </mxCell>
        <mxCell id="hWaTpJQsUfpoI2xFxVlj-9" value="Seguridad" style="ellipse;whiteSpace=wrap;html=1;" vertex="1" parent="1">
          <mxGeometry x="340" y="230" width="120" height="80" as="geometry" />
        </mxCell>
        <mxCell id="hWaTpJQsUfpoI2xFxVlj-10" value="Histórico de préstamos" style="ellipse;whiteSpace=wrap;html=1;" vertex="1" parent="1">
          <mxGeometry x="480" y="230" width="120" height="80" as="geometry" />
        </mxCell>
        <mxCell id="hWaTpJQsUfpoI2xFxVlj-11" value="1. Agregar libro al inventario.&lt;br&gt;2. Buscar libro por título, autor.&lt;br&gt;3. Buscar libros por categoría.&lt;br&gt;4. Realizar el préstamo de un libro.&lt;br&gt;5. Registrar la devolución de un libro.&lt;br&gt;6. Mostrar libros disponibles y préstamos activos." style="rounded=1;whiteSpace=wrap;html=1;fillColor=#d5e8d4;strokeColor=#82b366;" vertex="1" parent="1">
          <mxGeometry x="310" y="10" width="340" height="100" as="geometry" />
        </mxCell>
        <mxCell id="hWaTpJQsUfpoI2xFxVlj-12" value="Servicio al cliente" style="ellipse;whiteSpace=wrap;html=1;" vertex="1" parent="1">
          <mxGeometry x="620" y="230" width="120" height="80" as="geometry" />
        </mxCell>
        <mxCell id="hWaTpJQsUfpoI2xFxVlj-13" value="" style="endArrow=none;dashed=1;html=1;dashPattern=1 3;strokeWidth=2;rounded=0;" edge="1" parent="1">
          <mxGeometry width="50" height="50" relative="1" as="geometry">
            <mxPoint x="10" y="420" as="sourcePoint" />
            <mxPoint x="840" y="420" as="targetPoint" />
            <Array as="points" />
          </mxGeometry>
        </mxCell>
        <mxCell id="hWaTpJQsUfpoI2xFxVlj-14" value="Libros" style="ellipse;whiteSpace=wrap;html=1;" vertex="1" parent="1">
          <mxGeometry x="365" y="610" width="120" height="80" as="geometry" />
        </mxCell>
        <mxCell id="hWaTpJQsUfpoI2xFxVlj-16" style="edgeStyle=orthogonalEdgeStyle;rounded=0;orthogonalLoop=1;jettySize=auto;html=1;exitX=0;exitY=0.5;exitDx=0;exitDy=0;entryX=1;entryY=0.5;entryDx=0;entryDy=0;" edge="1" parent="1" source="hWaTpJQsUfpoI2xFxVlj-15" target="hWaTpJQsUfpoI2xFxVlj-14">
          <mxGeometry relative="1" as="geometry" />
        </mxCell>
        <mxCell id="hWaTpJQsUfpoI2xFxVlj-15" value="Inventario" style="ellipse;whiteSpace=wrap;html=1;" vertex="1" parent="1">
          <mxGeometry x="565" y="610" width="120" height="80" as="geometry" />
        </mxCell>
        <mxCell id="hWaTpJQsUfpoI2xFxVlj-17" value="Lista de préstamos pendientes" style="ellipse;whiteSpace=wrap;html=1;fillColor=#d5e8d4;strokeColor=#82b366;" vertex="1" parent="1">
          <mxGeometry x="60" y="330" width="120" height="80" as="geometry" />
        </mxCell>
        <mxCell id="hWaTpJQsUfpoI2xFxVlj-19" style="edgeStyle=orthogonalEdgeStyle;rounded=0;orthogonalLoop=1;jettySize=auto;html=1;exitX=1;exitY=0.5;exitDx=0;exitDy=0;" edge="1" parent="1" source="hWaTpJQsUfpoI2xFxVlj-18" target="hWaTpJQsUfpoI2xFxVlj-14">
          <mxGeometry relative="1" as="geometry" />
        </mxCell>
        <mxCell id="hWaTpJQsUfpoI2xFxVlj-18" value="Lista de préstamos pendientes" style="ellipse;whiteSpace=wrap;html=1;" vertex="1" parent="1">
          <mxGeometry x="165" y="610" width="120" height="80" as="geometry" />
        </mxCell>
        <mxCell id="hWaTpJQsUfpoI2xFxVlj-21" style="edgeStyle=orthogonalEdgeStyle;rounded=0;orthogonalLoop=1;jettySize=auto;html=1;exitX=0.5;exitY=1;exitDx=0;exitDy=0;entryX=0.5;entryY=0;entryDx=0;entryDy=0;" edge="1" parent="1" source="hWaTpJQsUfpoI2xFxVlj-20" target="hWaTpJQsUfpoI2xFxVlj-14">
          <mxGeometry relative="1" as="geometry" />
        </mxCell>
        <mxCell id="hWaTpJQsUfpoI2xFxVlj-24" style="edgeStyle=orthogonalEdgeStyle;rounded=0;orthogonalLoop=1;jettySize=auto;html=1;exitX=0;exitY=0.5;exitDx=0;exitDy=0;entryX=1;entryY=0.5;entryDx=0;entryDy=0;" edge="1" parent="1" source="hWaTpJQsUfpoI2xFxVlj-20" target="hWaTpJQsUfpoI2xFxVlj-23">
          <mxGeometry relative="1" as="geometry" />
        </mxCell>
        <mxCell id="hWaTpJQsUfpoI2xFxVlj-20" value="Préstamos" style="ellipse;whiteSpace=wrap;html=1;" vertex="1" parent="1">
          <mxGeometry x="365" y="480" width="120" height="80" as="geometry" />
        </mxCell>
        <mxCell id="hWaTpJQsUfpoI2xFxVlj-22" value="Proveedor" style="ellipse;whiteSpace=wrap;html=1;" vertex="1" parent="1">
          <mxGeometry x="200" y="330" width="120" height="80" as="geometry" />
        </mxCell>
        <mxCell id="hWaTpJQsUfpoI2xFxVlj-23" value="Clientes" style="ellipse;whiteSpace=wrap;html=1;" vertex="1" parent="1">
          <mxGeometry x="160" y="480" width="120" height="80" as="geometry" />
        </mxCell>
      </root>
    </mxGraphModel>
  </diagram>
</mxfile>
